<?xml version="1.0" encoding="utf-8"?>
<!-- Generator: Adobe Illustrator 21.0.2, SVG Export Plug-In . SVG Version: 6.00 Build 0)  -->
<svg version="1.1" id="Layer_1" xmlns="http://www.w3.org/2000/svg" xmlns:xlink="http://www.w3.org/1999/xlink" x="0px" y="0px"
	 viewBox="0 0 1000 1000" style="enable-background:new 0 0 1000 1000;" xml:space="preserve">
<style type="text/css">
	.st0{fill:#F59521;}
	.st1{fill:#FFFFFF;}
</style>
<g>
	<path class="st0" d="M948.7,498.6c7.9,240.8-197.5,454.2-452.7,451.2c-248.5-2.9-447.5-206.1-445-454.5
		c2.5-249.6,206.9-446,451.8-445.2C757.7,51,955.5,265.6,948.7,498.6z M500.6,859.7c195.6,6,355.7-163.5,361.2-348.2
		c5.9-198.6-158.3-372.1-360.4-372.5c-198.6-0.4-357.5,166.5-361.6,352.6C135.3,697.5,310.5,866.7,500.6,859.7z"/>
	<path class="st0" d="M594.5,437.9c3.5-0.2,6.4-0.4,9.2-0.4c35.6,0,71.1,0.2,106.7-0.2c7.7-0.1,10.7,1.5,10.6,10.1
		c-0.8,66.7-0.7,133.4-2.1,200.1c-0.2,9.2-5.6,19.1-10.8,27.3c-16.3,25.6-39.7,41.1-70.7,41.3c-88.1,0.5-176.3,0.7-264.4-0.1
		c-37.1-0.3-69.6-26.1-81.2-61.5c-0.8-2.4-0.9-5.2-0.9-7.8c-0.5-66.4-0.7-132.8-1.4-199.2c-0.1-8.4,2.7-10.3,10.5-10.2
		c35,0.6,69.9,0.7,104.9,1c2.6,0,5.2,0.3,9.1,0.5c-32,64.9-23.8,120.1,40.4,158.9c38.7,23.4,88.1,17.4,123.3-15.6
		C622.1,540.2,623.8,490.7,594.5,437.9z"/>
	<path class="st0" d="M719.3,424.3c-1.4,0.2-3.6,0.6-5.9,0.6c-41.7,0-83.5,0.1-125.2-0.1c-3.4,0-7.7-1.4-10.2-3.7
		c-38.8-36.4-97.9-36.8-139.5-5.4c-9.3,7-18.4,9.7-29.8,9.5c-35.9-0.5-71.7-0.2-107.6-0.2c-3.5,0-6.9,0-10.5,0
		c0-19.1,0.8-37.2-0.2-55.2c-1.4-26,10.6-45.7,27.2-63.7c1.4-1.5,3-2.8,4.6-4.1c0.6-0.5,1.6-0.4,4.3-1.1c0,29.4,0,58.3,0,87.8
		c6.1,0,10.3,0,15.7,0c0-3.1,0-6.2,0-9.3c0.1-26.2,0.1-52.3,0.5-78.5c0.1-5.1-1.1-13.1,6.7-13.2c8.4,0,5.9,8.4,6,13.1
		c0.6,25.6,0.5,51.1,0.6,76.7c0,3.5,0,7,0,11.1c5.6,0,10.4,0,16.2,0c0-34.8,0-69.6,0-104.1c11.5-2.9,13.1-2,13.2,8.3
		c0.4,28.8,0.6,57.6,0.8,86.4c0,2.9,0,5.8,0,9.4c4.9,0,9.2,0,14.8,0c0-34.4,0-68.9,0-104.1c3.9-0.4,6.4-0.9,8.9-0.9
		c68.8-0.1,137.6-0.3,206.3-0.3c7.6,0,15.3,0.8,22.9,1c29.5,0.9,51,15.6,67.5,39.1c7.6,10.8,12.5,22.6,12.5,36.1
		C719.3,380.8,719.3,402.2,719.3,424.3z M609.8,356.5c0,0,0.1,0,0.1,0c0,7.9-0.3,15.8,0.1,23.7c0.3,6.5,3.6,11.7,10.5,12
		c14.9,0.8,29.9,1.2,44.8,1c9-0.1,14.2-5.6,14.4-14.6c0.4-14.9,0.4-29.9,0.1-44.8c-0.1-7.5-4.6-12.4-12.1-12.7
		c-15.2-0.5-30.5-0.5-45.7-0.1c-8,0.2-12.1,5.4-12.2,13.3C609.7,341.8,609.8,349.2,609.8,356.5z"/>
	<path class="st0" d="M503.8,585.6c-49.7,3.7-84.3-44.8-84.2-82.6c0.1-46.2,39.4-86.5,84.8-86.5c42.4-0.1,85.9,37.5,85.3,85.7
		C589.3,547,550,589.9,503.8,585.6z M566,502.2c0-35.9-25.8-61.1-62.7-61.1c-31.8,0-59.8,28.2-59.9,60.6
		c-0.2,33,28.7,62.3,61.6,62.5C535,564.3,570,535.6,566,502.2z"/>
</g>
</svg>
