<?xml version="1.0" encoding="utf-8"?>
<!-- Generator: Adobe Illustrator 21.0.2, SVG Export Plug-In . SVG Version: 6.00 Build 0)  -->
<svg version="1.1" id="Layer_1" xmlns="http://www.w3.org/2000/svg" xmlns:xlink="http://www.w3.org/1999/xlink" x="0px" y="0px"
	 viewBox="0 0 1000 1000" style="enable-background:new 0 0 1000 1000;" xml:space="preserve">
<style type="text/css">
	.st0{fill:#F59521;}
	.st1{fill:#FFFFFF;}
</style>
<g>
	<path class="st0" d="M762.5,353.4H694c5.9,7.7,11.3,15.7,16.2,24.1h64.5C771,369.3,767,361.3,762.5,353.4z"/>
	<circle class="st0" cx="903.8" cy="500" r="13.9"/>
	<path class="st0" d="M738.9,547.3c-22,110.8-119.8,194.4-237.1,194.4s-215.1-83.5-237.1-194.4h-58.3C229.2,690,352.8,799,501.8,799
		S774.5,690,797.2,547.3H738.9z"/>
	<path class="st0" d="M204.5,468.2c-1,9.3-1.5,18.6-1.7,28.1h57.4c0.1-9.5,0.8-18.9,2-28.1H204.5z"/>
	<path class="st0" d="M241.2,353.4c-4.4,7.8-8.5,15.9-12.2,24.1h64.5c4.9-8.4,10.3-16.4,16.2-24.1H241.2z"/>
	<path class="st0" d="M721.6,297.2h-88.2c11.1,7.2,21.5,15.3,31.2,24.1h77C735.4,312.9,728.7,304.9,721.6,297.2z"/>
	<path class="st0" d="M501.8,201c-24.5,0-48.3,3-71.1,8.5H573C550.2,203.9,526.4,201,501.8,201z"/>
	<path class="st0" d="M655.3,243.3H348.4c-10.8,6.4-21.1,13.5-30.9,21.2h368.7C676.4,256.8,666.1,249.7,655.3,243.3z"/>
	<path class="st0" d="M282.1,297.2c-7.1,7.7-13.8,15.7-20,24.1h77c9.7-8.8,20.1-16.9,31.2-24.1H282.1z"/>
	<path class="st0" d="M762.5,353.4H694c5.9,7.7,11.3,15.7,16.2,24.1h64.5C771,369.3,767,361.3,762.5,353.4z"/>
	<path class="st0" d="M216.5,410.2c-2.5,7.9-4.6,15.9-6.4,24.1h59.1c2.3-8.2,5-16.2,8.2-24.1H216.5z"/>
	<polygon class="st0" points="590.4,410.2 533.9,410.2 542,434.3 599.1,434.3 	"/>
	<polygon class="st0" points="438.1,353.4 429.1,377.5 480.2,377.5 489,353.4 	"/>
	<polygon class="st0" points="549.5,297.2 459.3,297.2 450.2,321.3 558.2,321.3 	"/>
	<polygon class="st0" points="569.8,353.4 514.8,353.4 522.9,377.5 578.6,377.5 	"/>
	<polygon class="st0" points="416.8,410.2 407.7,434.3 459.5,434.3 468.3,410.2 	"/>
	<polygon class="st0" points="437.6,494.7 447.2,468.2 395,468.2 384.4,496.3 	"/>
	<polygon class="st0" points="611.4,468.2 553.3,468.2 562.2,494.7 621.6,496.3 	"/>
	<polygon class="st0" points="640,547.3 365.2,547.3 323,659.6 378.9,659.6 402.9,592.6 598.7,592.6 621.5,659.6 680.7,659.6 	"/>
	<g>
		<path class="st1" d="M500,851c-193.6,0-351-157.5-351-351s157.5-351,351-351s351,157.5,351,351S693.6,851,500,851z M500,171.9
			c-180.9,0-328.1,147.2-328.1,328.1c0,180.9,147.2,328.1,328.1,328.1S828.1,680.9,828.1,500C828.1,319.1,680.9,171.9,500,171.9z"/>
	</g>
	<g>
		<path class="st1" d="M137.8,630.8l7.1,17.1c2.1,5.1,2.5,10,1,13.7c-1.3,2.9-3.3,5-6.5,6.3l-0.2,0.1c-5.4,2.2-9.5,0.5-12.6-2
			c0.1,5.7-1.5,10.3-7.5,12.8l-0.3,0.1c-8.3,3.5-15.4-1.4-19.5-11.4L91.9,650L137.8,630.8z M118.4,659.6l-3.5-8.3l-10.8,4.5l3.6,8.5
			c1.8,4.3,4.7,6.2,8.3,4.7l0.1,0C119.3,667.6,120.4,664.3,118.4,659.6z M133.8,659.2c3.3-1.4,4.1-4.5,2.4-8.6l-3-7.1l-10.4,4.3
			l2.8,6.6C127.4,658.7,130.3,660.7,133.8,659.2L133.8,659.2z"/>
		<path class="st1" d="M165.3,688.5l5,8.5l-34.1,40.8l-5.4-9.2l7.5-8.7l-8.7-14.8l-11.2,2.3l-5.3-9L165.3,688.5z M144.4,712.5
			l11.2-12.9l-16.8,3.5L144.4,712.5z"/>
		<path class="st1" d="M186,721.9l11.6,14.7c3.6,4.5,5.1,9.2,4.6,13.6c-0.5,3.8-2.6,7.4-6.5,10.4l-0.2,0.2c-5.9,4.7-12,4.7-17.3,1.8
			l-8,19.8l-7.3-9.3l7.2-17.3l-4-5.1l-12.9,10.1l-6.4-8.1L186,721.9z M178,751.1c3.3,4.1,7.4,4.5,10.9,1.7l0.1,0
			c3.9-3.1,4-7,0.7-11.2l-4.6-5.8l-11.8,9.3L178,751.1z"/>
		<path class="st1" d="M217.9,760.8l13.2,12.9c4,3.9,6.2,8.2,6.3,12.2c0,3.2-1.1,5.9-3.5,8.4l-0.1,0.2c-4.1,4.2-8.6,4.2-12.4,3.1
			c2.4,5.2,2.6,10-1.9,14.7l-0.2,0.3c-6.3,6.4-14.7,4.8-22.4-2.8l-13.6-13.3L217.9,760.8z M211.3,794.9l-6.5-6.3l-8.1,8.3l6.6,6.5
			c3.3,3.2,6.8,3.8,9.5,1.1l0-0.1C215.3,801.9,214.9,798.5,211.3,794.9z M225.3,788.6c2.5-2.6,2-5.8-1.1-8.8l-5.5-5.4l-7.8,8l5.1,5
			C219.3,790.6,222.7,791.3,225.3,788.6L225.3,788.6z"/>
		<path class="st1" d="M254.6,795.1l25.6,19.3l-5.6,7.4l-17.4-13.2l-6.5,8.6l15.3,11.6l-5.6,7.4l-15.3-11.6l-6.7,8.9l17.6,13.3
			l-5.6,7.4l-25.8-19.5L254.6,795.1z"/>
		<path class="st1" d="M292,822.3l16.2,9.3c5,2.9,8.2,6.6,9.4,10.9c1,3.7,0.3,7.8-2.1,12.1l-0.1,0.2c-3.8,6.5-9.4,8.8-15.3,8.2
			l0,21.3l-10.2-5.9l0.2-18.8l-5.6-3.2l-8.1,14.2l-8.9-5.1L292,822.3z M295.4,852.3c4.6,2.6,8.5,1.4,10.7-2.4l0-0.1
			c2.5-4.3,1.1-8-3.5-10.6l-6.4-3.7l-7.5,13L295.4,852.3z"/>
		<path class="st1" d="M337.2,846.5l9.4,4.2l-20.2,45.5L317,892L337.2,846.5z"/>
		<path class="st1" d="M361.8,857.3l9,2.9l9.3,33.4l8.8-27.6l9.6,3.1l-15.2,47.4l-8.4-2.7l-9.6-34.7l-9.2,28.7l-9.6-3.1L361.8,857.3
			z"/>
		<path class="st1" d="M407.5,897.2l0.1-0.6c2.5-14.5,13.8-23.3,27.2-21.1c6.9,1.2,11.2,3.9,15.1,8.5l-7.4,6.9
			c-2.2-2.8-4.8-5.1-9.5-5.9c-7-1.2-13.4,4.3-15,13.3l-0.1,0.6c-1.7,10.1,2.9,16.7,10.1,17.9c2.9,0.5,5.6,0.2,7.6-0.8l1.5-8.7
			l-8.9-1.5l1.5-8.8l18.6,3.2l-3.9,22.7c-5.1,2.6-11.2,4.4-18.5,3.1C412.9,923.8,404.9,912.6,407.5,897.2z"/>
		<path class="st1" d="M513,881.2l32-2.6l0.8,9.3l-21.8,1.8l0.9,10.7l19.1-1.6l0.8,9.3l-19.1,1.6l0.9,11.1l22-1.8l0.8,9.3l-32.3,2.7
			L513,881.2z"/>
		<path class="st1" d="M595.8,868.7l-8.9,26.7l19.8,21.8l-11.5,2.4l-12.5-14.8l-5.4,18.6l-11.2,2.4l9.1-27.8l-18.9-21l11.5-2.4
			l11.6,14l5.1-17.6L595.8,868.7z"/>
		<path class="st1" d="M612.1,890.2l-0.2-0.6c-4.9-14.2,0.6-27,13-31.3c7-2.4,12.4-1.4,17.3,1l-3.2,9.6c-3.8-1.9-7.4-2.7-11.2-1.4
			c-6.3,2.2-8.9,9.7-5.7,18.8l0.1,0.2c3.2,9.3,10.1,13.4,16.3,11.2c3.8-1.3,5.9-4,8-8.3l8.3,4.9c-2.7,5.8-6.3,10.1-13.5,12.6
			C628.8,911.2,617.1,904.6,612.1,890.2z"/>
		<path class="st1" d="M652.2,848.4l28.7-14.3l4.1,8.3l-19.6,9.7l4.8,9.6l17.2-8.5l4.1,8.3l-17.2,8.5l4.9,9.9l19.8-9.8l4.1,8.3
			l-29,14.4L652.2,848.4z"/>
		<path class="st1" d="M693.3,826.8l8.6-5.6l22.1,33.8l16.9-11l5.2,7.9l-25.5,16.7L693.3,826.8z"/>
		<path class="st1" d="M729.1,802.3l7.9-6.6l25.7,31l15.5-12.8l6,7.3l-23.4,19.4L729.1,802.3z"/>
		<path class="st1" d="M761.9,774l22.1-23.2l6.7,6.4L775.7,773l7.8,7.4l13.3-13.9l6.7,6.4l-13.3,13.9l8,7.7l15.3-16l6.7,6.4
			L798,808.3L761.9,774z"/>
		<path class="st1" d="M793.2,740.1l5.6-7.6l34.7,1.7L810,717.1l6-8.2l40.2,29.4l-5.2,7.1l-35.9-1.8l24.3,17.7l-6,8.2L793.2,740.1z"
			/>
		<path class="st1" d="M845.5,709.2l-0.6-0.3c-13.3-7.2-17.8-20.3-11.6-31.9c3.5-6.5,8.1-9.4,13.4-10.9l4.1,9.2
			c-4.1,1.2-7.3,3-9.2,6.6c-3.2,5.9-0.1,13.1,8.5,17.7l0.2,0.1c8.7,4.7,16.5,3.1,19.6-2.8c1.9-3.5,1.6-7,0.3-11.5l9.4-2
			c1.9,6.1,2.2,11.7-1.4,18.4C871.9,713.4,858.9,716.4,845.5,709.2z"/>
		<path class="st1" d="M846.8,651.4l11.5-29.9l8.7,3.4l-7.9,20.4l10,3.9l6.9-17.9l8.7,3.4l-6.9,17.9l10.4,4l8-20.6l8.7,3.4
			l-11.6,30.2L846.8,651.4z"/>
	</g>
	<g>
		<path class="st1" d="M109.6,376l-0.5-0.2c-12.3-4.5-17.9-15.3-14-26c2.2-6.1,5.9-9.1,10.2-11.1l4.7,7.4c-3.4,1.5-5.9,3.5-7.1,6.8
			c-2,5.5,1.6,11.3,9.5,14.2l0.2,0.1c8.1,3,14.6,0.6,16.5-4.8c1.2-3.3,0.6-6.2-1.2-9.9l7.8-2.9c2.4,5,3.3,9.8,1.1,16
			C132.9,376.3,122,380.6,109.6,376z"/>
		<path class="st1" d="M129.4,336.7l-23.8-11.8l4-8l23.8,11.8c5.5,2.7,9.5,1.5,11.6-2.7c2.1-4.2,0.7-8.1-4.7-10.8l-24-11.9l4-8
			L144,307c10.7,5.3,12.9,13.8,8.5,22.8C148,338.7,139.9,341.9,129.4,336.7z"/>
		<path class="st1" d="M139.6,279.4l-5.8,9.2l-7-4.4l16.5-25.9l7,4.4l-5.8,9.2l29.6,18.8l-4.8,7.5L139.6,279.4z"/>
		<path class="st1" d="M184,207.4l5.9-6.2l42.3,18.9l-6.4,6.7l-9-4.2l-10.3,10.8l4.6,8.8l-6.3,6.5L184,207.4z M209.1,219.1
			l-13.5-6.4l6.9,13.2L209.1,219.1z"/>
		<path class="st1" d="M210.4,181.6l12.3-10.3c3.7-3.1,7.6-4.7,11.1-4.4c2.7,0.3,5,1.5,7,3.8l0.1,0.1c3.3,3.9,2.9,7.8,1.6,11
			c4.7-1.6,8.9-1.4,12.6,3l0.2,0.2c5,6,2.8,13.1-4.4,19.2l-12.7,10.6L210.4,181.6z M235,177.6c-2-2.4-4.8-2.3-7.8,0.2l-5.1,4.3
			l6.3,7.5l4.8-4C236.3,183,237.2,180.2,235,177.6L235,177.6z M239.3,190.3l-6,5.1l6.5,7.8l6.2-5.2c3.1-2.6,3.9-5.5,1.8-8.1l0,0
			C245.7,187.5,242.7,187.5,239.3,190.3z"/>
		<path class="st1" d="M257.1,171.9l-0.4-0.6c-7.2-10.9-5.3-23,4.2-29.3c9.6-6.3,21.3-3.2,28.4,7.6l0.4,0.6
			c7.1,10.8,5.3,23-4.2,29.3C275.9,185.8,264.2,182.7,257.1,171.9z M281.9,155.2l-0.2-0.4c-4.7-7.1-11.3-9.2-16.3-5.9
			c-5.1,3.3-5.7,10.1-1,17.3l0.2,0.4c4.7,7.1,11.3,9.2,16.4,5.9C286,169.2,286.7,162.4,281.9,155.2z"/>
		<path class="st1" d="M285.6,127.3l8.7-4.4l21.7,22.4l-5.4-30.8l8.4-4.3l6.8,45.5l-7.4,3.8L285.6,127.3z"/>
		<path class="st1" d="M330.6,105.3l26.1-10l2.9,7.6l-17.8,6.8l3.4,8.7l15.6-6l2.9,7.6l-15.6,6l3.5,9l18-6.9l2.9,7.6l-26.3,10.1
			L330.6,105.3z"/>
		<path class="st1" d="M409,80.9l15.9-2.7c4.8-0.8,9-0.2,11.8,1.8c2.2,1.6,3.6,3.8,4.1,6.8l0,0.2c0.9,5-1.4,8.2-4.2,10.3
			c4.9,1,8.4,3.3,9.4,8.9l0.1,0.3c1.3,7.7-4.2,12.8-13.4,14.4l-16.3,2.8L409,80.9z M432.3,89.9c-0.5-3.1-3-4.4-6.8-3.7l-6.6,1.1
			l1.6,9.6l6.2-1.1C430.7,95.2,432.9,93.2,432.3,89.9L432.3,89.9z M429.6,103l-7.8,1.3l1.7,10l7.9-1.4c4-0.7,6.2-2.8,5.6-6.1l0-0.1
			C436.6,103.8,434,102.3,429.6,103z"/>
		<path class="st1" d="M466.7,73l8.5-0.5l18.1,42.6l-9.3,0.5l-3.8-9.2l-14.9,0.9l-2.6,9.6l-9,0.5L466.7,73z M477.1,98.7l-5.5-13.8
			l-3.9,14.4L477.1,98.7z"/>
		<path class="st1" d="M503.5,72l16.3,0.8c5,0.3,9,1.9,11.5,4.7c2.2,2.5,3.4,5.9,3.1,10.2l0,0.2c-0.3,6.6-3.8,10.5-8.7,12.4
			l8.4,16.6l-10.3-0.5l-7.3-14.6l-5.6-0.3l-0.7,14.2l-9-0.5L503.5,72z M518.1,94c4.6,0.2,7.2-2.2,7.4-6.1l0-0.1
			c0.2-4.3-2.3-6.6-6.9-6.9l-6.4-0.3l-0.7,13.1L518.1,94z"/>
		<path class="st1" d="M549.6,75.2l15.9,2.5c4.8,0.8,8.5,2.7,10.6,5.5c1.6,2.3,2.2,4.7,1.7,7.7l0,0.2c-0.8,5-4,7.3-7.3,8.4
			c4.3,2.5,6.9,5.8,6,11.4l0,0.3c-1.2,7.7-8.1,10.8-17.3,9.3l-16.3-2.6L549.6,75.2z M562,102.8l-7.8-1.2l-1.6,10l7.9,1.3
			c4,0.6,6.8-0.7,7.3-4l0-0.1C568.3,105.8,566.4,103.5,562,102.8z M568.8,91.2c0.5-3.1-1.4-5.1-5.2-5.7l-6.6-1.1l-1.5,9.7l6.2,1
			C565.5,95.7,568.2,94.5,568.8,91.2L568.8,91.2z"/>
		<path class="st1" d="M594.8,83.4l27,7.2l-2.1,7.8l-18.4-4.9l-2.4,9l16.2,4.3l-2.1,7.8l-16.2-4.3l-2.5,9.3l18.6,5l-2.1,7.8
			l-27.2-7.3L594.8,83.4z"/>
		<path class="st1" d="M635.6,95.1l15.2,5.8c4.7,1.8,7.9,4.6,9.5,8.1c1.4,3,1.3,6.7-0.2,10.7l-0.1,0.2c-2.4,6.1-6.9,8.8-12.1,9.1
			l2.8,18.3l-9.6-3.7l-2.4-16.2l-5.3-2l-5.1,13.3l-8.4-3.2L635.6,95.1z M642.6,120.4c4.3,1.6,7.5,0.1,8.9-3.5l0-0.1
			c1.6-4-0.2-7-4.4-8.7l-6-2.3l-4.7,12.2L642.6,120.4z"/>
		<path class="st1" d="M724,137.4l7.2,4.6l-10.5,45.1l-7.8-5l2.4-9.7l-12.6-8.1l-7.8,6.2l-7.6-4.9L724,137.4z M717.2,164.3l3.7-14.4
			l-11.7,9.3L717.2,164.3z"/>
		<path class="st1" d="M737.5,173.1l0.3-0.4c8.2-10.2,20.2-12.1,29.1-4.9c5,4,6.8,8.5,7.3,13.2l-8.5,2c-0.4-3.7-1.4-6.7-4.2-8.9
			c-4.5-3.6-11.3-2.1-16.5,4.5l-0.1,0.1c-5.4,6.7-5.2,13.6-0.7,17.2c2.7,2.2,5.7,2.5,9.8,2.1l0.2,8.4c-5.6,0.7-10.4,0-15.5-4.1
			C729.7,195.1,729.2,183.4,737.5,173.1z"/>
		<path class="st1" d="M796.4,194.6l6,6.1l-19.9,41.8l-6.6-6.6l4.4-8.9l-10.5-10.6l-8.9,4.4l-6.4-6.4L796.4,194.6z M784.1,219.5
			l6.7-13.3l-13.4,6.6L784.1,219.5z"/>
		<path class="st1" d="M821.7,221.6l8.7,11c7.8,9.9,6.1,21.6-3.9,29.5l-0.4,0.3c-10,7.9-21.8,7-29.7-2.9l-8.7-11L821.7,221.6z
			 M820.9,233.7l-21.3,16.9l3.1,3.9c4.2,5.3,10.9,6,17.6,0.7l0.2-0.2c6.7-5.3,7.7-12,3.4-17.3L820.9,233.7z"/>
		<path class="st1" d="M851.3,260.7l14.9,23.6l-6.9,4.3l-10.2-16.1l-7.9,5l8.9,14.1l-6.9,4.3l-8.9-14.1l-8.2,5.2l10.3,16.3l-6.9,4.3
			l-15.1-23.8L851.3,260.7z"/>
		<path class="st1" d="M873.6,297.1l4.1,8.5l-11.6,16.3l20,0.9l4.1,8.5l-39,18.8l-3.8-7.9l24.9-12l-20.6-1.4l-0.1-0.2l11.6-16.9
			l-24.8,12l-3.8-7.9L873.6,297.1z"/>
		<path class="st1" d="M873.4,361.3l20-22.1l3.4,9.6l-13.2,13.8l18.9,2.4l3.3,9.3l-29.4-4.6l-16.2,5.8l-3-8.5L873.4,361.3z"/>
	</g>
	<g>
		<path class="st0" d="M500,991c-131.2,0-254.5-51.1-347.2-143.8C60.1,754.5,9,631.2,9,500s51.1-254.5,143.8-347.2S368.8,9,500,9
			s254.5,51.1,347.2,143.8C939.9,245.5,991,368.8,991,500s-51.1,254.5-143.8,347.2C754.5,939.9,631.2,991,500,991z M500,36.5
			C244.4,36.5,36.5,244.4,36.5,500c0,255.6,207.9,463.5,463.5,463.5c255.6,0,463.5-207.9,463.5-463.5
			C963.5,244.4,755.6,36.5,500,36.5z"/>
	</g>
	<circle class="st1" cx="92.6" cy="500" r="16.2"/>
	<circle class="st1" cx="907" cy="500" r="16.2"/>
	<g>
		<path class="st1" d="M206.5,506.6h11.4c3.4,0,6.3,0.9,8,2.7c1.4,1.4,2.1,3.1,2.1,5.2v0.1c0,3.6-2,5.5-4.2,6.7
			c3.3,1.3,5.5,3.3,5.5,7.3v0.2c0,5.5-4.4,8.4-11.1,8.4h-11.7V506.6z M221.7,515.6c0-2.2-1.6-3.4-4.3-3.4h-4.7v6.9h4.4
			C219.9,519.1,221.7,518,221.7,515.6L221.7,515.6z M218.3,524.5h-5.6v7.2h5.7c2.8,0,4.6-1.2,4.6-3.6v0
			C223,525.8,221.4,524.5,218.3,524.5z"/>
		<path class="st1" d="M246,506.4h6l11,30.8h-6.6l-2.3-6.7h-10.6l-2.2,6.7H235L246,506.4z M252.3,525l-3.3-10l-3.4,10H252.3z"/>
		<path class="st1" d="M270.4,506.6h11.5c3.5,0,6.4,1,8.3,2.9c1.7,1.7,2.6,4.1,2.6,7.1v0.2c0,4.6-2.3,7.6-5.7,9.1l6.5,11.4h-7.3
			l-5.6-10.1h-4v10.1h-6.3V506.6z M281.4,521.6c3.2,0,5-1.8,5-4.6v0c0-3.1-1.9-4.6-5.1-4.6h-4.6v9.2H281.4z"/>
		<path class="st1" d="M301.3,506.6h11.4c3.4,0,6.3,0.9,8,2.7c1.4,1.4,2.1,3.1,2.1,5.2v0.1c0,3.6-2,5.5-4.2,6.7
			c3.3,1.3,5.5,3.3,5.5,7.3v0.2c0,5.5-4.4,8.4-11.1,8.4h-11.7V506.6z M316.5,515.6c0-2.2-1.6-3.4-4.3-3.4h-4.7v6.9h4.4
			C314.7,519.1,316.5,518,316.5,515.6L316.5,515.6z M313.1,524.5h-5.6v7.2h5.7c2.8,0,4.6-1.2,4.6-3.6v0
			C317.8,525.8,316.2,524.5,313.1,524.5z"/>
		<path class="st1" d="M332.2,506.6h19.7v5.7h-13.4v6.6h11.8v5.7h-11.8v6.8h13.6v5.7h-19.9V506.6z"/>
		<path class="st1" d="M360.6,506.6h11.5c3.5,0,6.4,1,8.3,2.9c1.7,1.7,2.6,4.1,2.6,7.1v0.2c0,4.6-2.3,7.6-5.7,9.1l6.5,11.4h-7.3
			l-5.6-10.1h-4v10.1h-6.3V506.6z M371.6,521.6c3.2,0,5-1.8,5-4.6v0c0-3.1-1.9-4.6-5.1-4.6H367v9.2H371.6z"/>
		<path class="st1" d="M413.6,506.4h6l11,30.8H424l-2.3-6.7h-10.6l-2.2,6.7h-6.4L413.6,506.4z M419.8,525l-3.3-10l-3.4,10H419.8z"/>
		<path class="st1" d="M435.3,522.2v-0.4c0-9.3,5.8-15.6,13.9-15.6c4.6,0,7.5,1.7,9.9,4.1l-3.8,4.9c-1.8-1.9-3.8-3.1-6.3-3.1
			c-4.1,0-7.1,3.8-7.1,9.8v0.1c0,6.1,3.2,9.8,7.2,9.8c2.5,0,4.2-1.1,6.3-3.2l3.8,4.5c-2.8,2.8-5.7,4.6-10.4,4.6
			C440.7,537.7,435.3,531.5,435.3,522.2z"/>
		<path class="st1" d="M475.6,506.4h6l11,30.8h-6.6l-2.3-6.7h-10.6l-2.2,6.7h-6.4L475.6,506.4z M481.9,525l-3.3-10l-3.4,10H481.9z"
			/>
		<path class="st1" d="M500,506.6h9.9c8.9,0,14.6,6.1,14.6,15.1v0.4c0,9-5.7,15.1-14.6,15.1H500V506.6z M506.3,512.3v19.2h3.5
			c4.8,0,8.1-3.4,8.1-9.5v-0.2c0-6.1-3.3-9.5-8.1-9.5H506.3z"/>
		<path class="st1" d="M533,506.6h19.7v5.7h-13.4v6.6h11.8v5.7h-11.8v6.8h13.6v5.7H533V506.6z"/>
		<path class="st1" d="M561.4,506.6h6.7l6.8,12.4l6.7-12.4h6.7v30.6h-6.2v-19.6l-7.2,12.7h-0.1l-7.2-12.6v19.5h-6.2V506.6z"/>
		<path class="st1" d="M605.2,525.2l-10-18.6h7.2l6,12l6.1-12h7l-10,18.5v12.2h-6.3V525.2z"/>
	</g>
</g>
</svg>
